<mxfile host="app.diagrams.net" modified="2023-04-19T16:10:02.005Z" agent="Mozilla/5.0 (Windows NT 10.0; Win64; x64) AppleWebKit/537.36 (KHTML, like Gecko) Chrome/112.0.0.0 Safari/537.36" etag="cgvSbQy97gVg2BIREW1v" version="21.1.8" type="github">
  <diagram name="Página-1" id="QXGFcyqtO2LAgZ7RdORf">
    <mxGraphModel dx="2117" dy="573" grid="1" gridSize="10" guides="1" tooltips="1" connect="1" arrows="1" fold="1" page="1" pageScale="1" pageWidth="827" pageHeight="1169" math="0" shadow="0">
      <root>
        <mxCell id="0" />
        <mxCell id="1" parent="0" />
        <mxCell id="vr5rwgL9Q3Kud_MAougq-15" value="Proveedor" style="swimlane;childLayout=stackLayout;horizontal=1;startSize=20;horizontalStack=0;rounded=1;fontSize=14;fontStyle=0;strokeWidth=2;resizeParent=0;resizeLast=1;shadow=0;dashed=0;align=center;fillColor=#33FF33;strokeColor=#000000;" parent="1" vertex="1">
          <mxGeometry x="-290" y="210" width="160" height="70" as="geometry" />
        </mxCell>
        <mxCell id="vr5rwgL9Q3Kud_MAougq-16" value="+id_proveedor&#xa;+Datos" style="align=left;strokeColor=#000000;fillColor=#8AFF7D;spacingLeft=4;fontSize=12;verticalAlign=top;resizable=0;rotatable=0;part=1;" parent="vr5rwgL9Q3Kud_MAougq-15" vertex="1">
          <mxGeometry y="20" width="160" height="50" as="geometry" />
        </mxCell>
        <mxCell id="vr5rwgL9Q3Kud_MAougq-17" value="Pedidos" style="swimlane;childLayout=stackLayout;horizontal=1;startSize=20;horizontalStack=0;rounded=1;fontSize=14;fontStyle=0;strokeWidth=2;resizeParent=0;resizeLast=1;shadow=0;dashed=0;align=center;fillColor=#45FF0D;strokeColor=#000000;" parent="1" vertex="1">
          <mxGeometry x="-290" y="330" width="160" height="70" as="geometry" />
        </mxCell>
        <mxCell id="vr5rwgL9Q3Kud_MAougq-18" value="+id_pedidos&#xa;+Datos" style="align=left;strokeColor=#000000;fillColor=#8AFF7D;spacingLeft=4;fontSize=12;verticalAlign=top;resizable=0;rotatable=0;part=1;" parent="vr5rwgL9Q3Kud_MAougq-17" vertex="1">
          <mxGeometry y="20" width="160" height="50" as="geometry" />
        </mxCell>
        <mxCell id="vr5rwgL9Q3Kud_MAougq-20" style="edgeStyle=orthogonalEdgeStyle;rounded=0;orthogonalLoop=1;jettySize=auto;html=1;exitX=0.5;exitY=1;exitDx=0;exitDy=0;entryX=0.5;entryY=0;entryDx=0;entryDy=0;fillColor=#FFFFFF;strokeColor=#000000;" parent="1" source="vr5rwgL9Q3Kud_MAougq-16" target="vr5rwgL9Q3Kud_MAougq-17" edge="1">
          <mxGeometry relative="1" as="geometry" />
        </mxCell>
        <mxCell id="vr5rwgL9Q3Kud_MAougq-23" style="edgeStyle=orthogonalEdgeStyle;rounded=0;orthogonalLoop=1;jettySize=auto;html=1;entryX=0.5;entryY=1;entryDx=0;entryDy=0;fillColor=#FFFFFF;strokeColor=#000000;" parent="1" source="vr5rwgL9Q3Kud_MAougq-21" target="vr5rwgL9Q3Kud_MAougq-18" edge="1">
          <mxGeometry relative="1" as="geometry" />
        </mxCell>
        <mxCell id="wK7u8KOisi-HVqVEmxdb-3" style="edgeStyle=orthogonalEdgeStyle;rounded=0;orthogonalLoop=1;jettySize=auto;html=1;exitX=1;exitY=0.5;exitDx=0;exitDy=0;entryX=0;entryY=0.75;entryDx=0;entryDy=0;fillColor=#FFFFFF;strokeColor=#000000;" parent="1" source="vr5rwgL9Q3Kud_MAougq-21" target="k5OsFm6NcjSdjYwLhxJ1-28" edge="1">
          <mxGeometry relative="1" as="geometry">
            <Array as="points">
              <mxPoint x="50" y="475" />
              <mxPoint x="50" y="621" />
            </Array>
          </mxGeometry>
        </mxCell>
        <mxCell id="vr5rwgL9Q3Kud_MAougq-21" value="Empleado" style="swimlane;childLayout=stackLayout;horizontal=1;startSize=20;horizontalStack=0;rounded=1;fontSize=14;fontStyle=0;strokeWidth=2;resizeParent=0;resizeLast=1;shadow=0;dashed=0;align=center;fillColor=#45FF0D;strokeColor=#000000;" parent="1" vertex="1">
          <mxGeometry x="-290" y="440" width="160" height="70" as="geometry" />
        </mxCell>
        <mxCell id="vr5rwgL9Q3Kud_MAougq-22" value="+id_empleado&#xa;+Datos" style="align=left;strokeColor=#000000;fillColor=#8AFF7D;spacingLeft=4;fontSize=12;verticalAlign=top;resizable=0;rotatable=0;part=1;" parent="vr5rwgL9Q3Kud_MAougq-21" vertex="1">
          <mxGeometry y="20" width="160" height="50" as="geometry" />
        </mxCell>
        <mxCell id="vr5rwgL9Q3Kud_MAougq-24" value="pedido_producto" style="swimlane;childLayout=stackLayout;horizontal=1;startSize=20;horizontalStack=0;rounded=1;fontSize=14;fontStyle=0;strokeWidth=2;resizeParent=0;resizeLast=1;shadow=0;dashed=0;align=center;fillColor=#FF9466;strokeColor=#000000;" parent="1" vertex="1">
          <mxGeometry x="-90" y="327" width="160" height="80" as="geometry" />
        </mxCell>
        <mxCell id="vr5rwgL9Q3Kud_MAougq-25" value="+id_pedido&#xa;+id_producto&#xa;+Datos" style="align=left;strokeColor=#000000;fillColor=#8AFF7D;spacingLeft=4;fontSize=12;verticalAlign=top;resizable=0;rotatable=0;part=1;" parent="vr5rwgL9Q3Kud_MAougq-24" vertex="1">
          <mxGeometry y="20" width="160" height="60" as="geometry" />
        </mxCell>
        <mxCell id="k5OsFm6NcjSdjYwLhxJ1-29" style="edgeStyle=orthogonalEdgeStyle;rounded=0;orthogonalLoop=1;jettySize=auto;html=1;exitX=0.5;exitY=1;exitDx=0;exitDy=0;entryX=0.5;entryY=0;entryDx=0;entryDy=0;fillColor=#FFFFFF;strokeColor=#000000;" parent="1" source="vr5rwgL9Q3Kud_MAougq-28" target="vr5rwgL9Q3Kud_MAougq-38" edge="1">
          <mxGeometry relative="1" as="geometry" />
        </mxCell>
        <mxCell id="vr5rwgL9Q3Kud_MAougq-28" value="Producto" style="swimlane;childLayout=stackLayout;horizontal=1;startSize=20;horizontalStack=0;rounded=1;fontSize=14;fontStyle=0;strokeWidth=2;resizeParent=0;resizeLast=1;shadow=0;dashed=0;align=center;fillColor=#45FF0D;strokeColor=#000000;" parent="1" vertex="1">
          <mxGeometry x="111" y="331" width="160" height="70" as="geometry" />
        </mxCell>
        <mxCell id="vr5rwgL9Q3Kud_MAougq-29" value="+Id_stock&#xa;+Datos" style="align=left;strokeColor=#000000;fillColor=#8AFF7D;spacingLeft=4;fontSize=12;verticalAlign=top;resizable=0;rotatable=0;part=1;" parent="vr5rwgL9Q3Kud_MAougq-28" vertex="1">
          <mxGeometry y="20" width="160" height="50" as="geometry" />
        </mxCell>
        <mxCell id="vr5rwgL9Q3Kud_MAougq-34" value="Categoria_producto" style="swimlane;childLayout=stackLayout;horizontal=1;startSize=19;horizontalStack=0;rounded=1;fontSize=14;fontStyle=0;strokeWidth=2;resizeParent=0;resizeLast=1;shadow=0;dashed=0;align=center;fillColor=#45FF0D;strokeColor=#000000;" parent="1" vertex="1">
          <mxGeometry x="111" y="211" width="160" height="70" as="geometry" />
        </mxCell>
        <mxCell id="vr5rwgL9Q3Kud_MAougq-35" value="+Id_categoria&#xa;+Datos" style="align=left;strokeColor=#000000;fillColor=#8AFF7D;spacingLeft=4;fontSize=12;verticalAlign=top;resizable=0;rotatable=0;part=1;" parent="vr5rwgL9Q3Kud_MAougq-34" vertex="1">
          <mxGeometry y="19" width="160" height="51" as="geometry" />
        </mxCell>
        <mxCell id="vr5rwgL9Q3Kud_MAougq-38" value="producto-Venta" style="swimlane;childLayout=stackLayout;horizontal=1;startSize=22;horizontalStack=0;rounded=1;fontSize=14;fontStyle=0;strokeWidth=2;resizeParent=0;resizeLast=1;shadow=0;dashed=0;align=center;fillColor=#FF9466;strokeColor=#000000;" parent="1" vertex="1">
          <mxGeometry x="111" y="446" width="160" height="70" as="geometry">
            <mxRectangle x="320" y="430" width="80" height="30" as="alternateBounds" />
          </mxGeometry>
        </mxCell>
        <mxCell id="vr5rwgL9Q3Kud_MAougq-39" value="+Id_venta&#xa;+Datos" style="align=left;strokeColor=#000000;fillColor=#66FF19;spacingLeft=4;fontSize=12;verticalAlign=top;resizable=0;rotatable=0;part=1;" parent="vr5rwgL9Q3Kud_MAougq-38" vertex="1">
          <mxGeometry y="22" width="160" height="48" as="geometry" />
        </mxCell>
        <mxCell id="vr5rwgL9Q3Kud_MAougq-41" value="Servicio-venta" style="swimlane;childLayout=stackLayout;horizontal=1;startSize=20;horizontalStack=0;rounded=1;fontSize=14;fontStyle=0;strokeWidth=2;resizeParent=0;resizeLast=1;shadow=0;dashed=0;align=center;fillColor=#FF9466;strokeColor=#000000;" parent="1" vertex="1">
          <mxGeometry x="330" y="446" width="160" height="70" as="geometry" />
        </mxCell>
        <mxCell id="vr5rwgL9Q3Kud_MAougq-42" value="+Id_servicio&#xa;+Datos" style="align=left;strokeColor=#000000;fillColor=#66FF19;spacingLeft=4;fontSize=12;verticalAlign=top;resizable=0;rotatable=0;part=1;" parent="vr5rwgL9Q3Kud_MAougq-41" vertex="1">
          <mxGeometry y="20" width="160" height="50" as="geometry" />
        </mxCell>
        <mxCell id="k5OsFm6NcjSdjYwLhxJ1-11" value="" style="edgeStyle=orthogonalEdgeStyle;rounded=0;orthogonalLoop=1;jettySize=auto;html=1;fillColor=#FFFFFF;strokeColor=#000000;" parent="1" source="vr5rwgL9Q3Kud_MAougq-44" edge="1">
          <mxGeometry relative="1" as="geometry">
            <mxPoint x="310" y="632" as="targetPoint" />
          </mxGeometry>
        </mxCell>
        <mxCell id="vr5rwgL9Q3Kud_MAougq-44" value="Cliente" style="swimlane;childLayout=stackLayout;horizontal=1;startSize=18;horizontalStack=0;rounded=1;fontSize=14;fontStyle=0;strokeWidth=2;resizeParent=0;resizeLast=1;shadow=0;dashed=0;align=center;fillColor=#45FF0D;strokeColor=#000000;" parent="1" vertex="1">
          <mxGeometry x="230" y="682" width="160" height="70" as="geometry" />
        </mxCell>
        <mxCell id="vr5rwgL9Q3Kud_MAougq-45" value="+Id_cliente&#xa;+Datos" style="align=left;strokeColor=#000000;fillColor=#66FF66;spacingLeft=4;fontSize=12;verticalAlign=top;resizable=0;rotatable=0;part=1;" parent="vr5rwgL9Q3Kud_MAougq-44" vertex="1">
          <mxGeometry y="18" width="160" height="52" as="geometry" />
        </mxCell>
        <mxCell id="NqYA0sLlcYKFU1yslHez-1" value="Categoría_servicio" style="swimlane;childLayout=stackLayout;horizontal=1;startSize=20;horizontalStack=0;rounded=1;fontSize=14;fontStyle=0;strokeWidth=2;resizeParent=0;resizeLast=1;shadow=0;dashed=0;align=center;fillColor=#45FF0D;strokeColor=#000000;" parent="1" vertex="1">
          <mxGeometry x="330" y="211" width="160" height="70" as="geometry" />
        </mxCell>
        <mxCell id="NqYA0sLlcYKFU1yslHez-2" value="+Id_categoria&#xa;+Datos" style="align=left;strokeColor=#000000;fillColor=#8AFF7D;spacingLeft=4;fontSize=12;verticalAlign=top;resizable=0;rotatable=0;part=1;" parent="NqYA0sLlcYKFU1yslHez-1" vertex="1">
          <mxGeometry y="20" width="160" height="50" as="geometry" />
        </mxCell>
        <mxCell id="zLEtbaGTQvapRK-hFVf--4" style="edgeStyle=orthogonalEdgeStyle;rounded=0;orthogonalLoop=1;jettySize=auto;html=1;exitX=0.5;exitY=1;exitDx=0;exitDy=0;entryX=0.5;entryY=0;entryDx=0;entryDy=0;fillColor=#FFFFFF;strokeColor=#000000;" parent="1" source="vr5rwgL9Q3Kud_MAougq-35" target="vr5rwgL9Q3Kud_MAougq-28" edge="1">
          <mxGeometry relative="1" as="geometry" />
        </mxCell>
        <mxCell id="aQ_L_K3R3-eqQe358fcE-4" value="" style="edgeStyle=orthogonalEdgeStyle;rounded=0;orthogonalLoop=1;jettySize=auto;html=1;fillColor=#FFFFFF;strokeColor=#000000;" parent="1" source="vr5rwgL9Q3Kud_MAougq-29" target="vr5rwgL9Q3Kud_MAougq-25" edge="1">
          <mxGeometry relative="1" as="geometry" />
        </mxCell>
        <mxCell id="aQ_L_K3R3-eqQe358fcE-6" style="edgeStyle=orthogonalEdgeStyle;rounded=0;orthogonalLoop=1;jettySize=auto;html=1;exitX=1;exitY=0;exitDx=0;exitDy=0;entryX=0;entryY=0.25;entryDx=0;entryDy=0;fillColor=#FFFFFF;strokeColor=#000000;" parent="1" source="vr5rwgL9Q3Kud_MAougq-18" target="vr5rwgL9Q3Kud_MAougq-25" edge="1">
          <mxGeometry relative="1" as="geometry">
            <Array as="points">
              <mxPoint x="-130" y="363" />
              <mxPoint x="-110" y="363" />
            </Array>
          </mxGeometry>
        </mxCell>
        <mxCell id="k5OsFm6NcjSdjYwLhxJ1-34" style="edgeStyle=orthogonalEdgeStyle;rounded=0;orthogonalLoop=1;jettySize=auto;html=1;exitX=0;exitY=0.5;exitDx=0;exitDy=0;entryX=0;entryY=0.25;entryDx=0;entryDy=0;fillColor=#FFFFFF;strokeColor=#000000;" parent="1" source="aQ_L_K3R3-eqQe358fcE-7" target="k5OsFm6NcjSdjYwLhxJ1-4" edge="1">
          <mxGeometry relative="1" as="geometry" />
        </mxCell>
        <mxCell id="wK7u8KOisi-HVqVEmxdb-6" style="edgeStyle=orthogonalEdgeStyle;rounded=0;orthogonalLoop=1;jettySize=auto;html=1;exitX=0;exitY=1;exitDx=0;exitDy=0;entryX=0;entryY=0.25;entryDx=0;entryDy=0;" parent="1" source="aQ_L_K3R3-eqQe358fcE-7" target="k5OsFm6NcjSdjYwLhxJ1-27" edge="1">
          <mxGeometry relative="1" as="geometry" />
        </mxCell>
        <mxCell id="aQ_L_K3R3-eqQe358fcE-7" value="sede" style="swimlane;childLayout=stackLayout;horizontal=1;startSize=15;horizontalStack=0;rounded=1;fontSize=14;fontStyle=0;strokeWidth=2;resizeParent=0;resizeLast=1;shadow=0;dashed=0;align=center;fillColor=#45FF0D;strokeColor=#000000;" parent="1" vertex="1">
          <mxGeometry x="-490" y="336" width="160" height="70" as="geometry" />
        </mxCell>
        <mxCell id="aQ_L_K3R3-eqQe358fcE-8" value="+id_sede&#xa;+Datos" style="align=left;strokeColor=#000000;fillColor=#8AFF7D;spacingLeft=4;fontSize=12;verticalAlign=top;resizable=0;rotatable=0;part=1;" parent="aQ_L_K3R3-eqQe358fcE-7" vertex="1">
          <mxGeometry y="15" width="160" height="55" as="geometry" />
        </mxCell>
        <mxCell id="aQ_L_K3R3-eqQe358fcE-9" style="edgeStyle=orthogonalEdgeStyle;rounded=0;orthogonalLoop=1;jettySize=auto;html=1;exitX=1;exitY=0.25;exitDx=0;exitDy=0;entryX=0;entryY=0.5;entryDx=0;entryDy=0;fillColor=#FFFFFF;strokeColor=#000000;" parent="1" source="aQ_L_K3R3-eqQe358fcE-8" target="vr5rwgL9Q3Kud_MAougq-17" edge="1">
          <mxGeometry relative="1" as="geometry" />
        </mxCell>
        <mxCell id="aQ_L_K3R3-eqQe358fcE-10" style="edgeStyle=orthogonalEdgeStyle;rounded=0;orthogonalLoop=1;jettySize=auto;html=1;exitX=0.5;exitY=1;exitDx=0;exitDy=0;entryX=0;entryY=0.25;entryDx=0;entryDy=0;fillColor=#FFFFFF;strokeColor=#000000;" parent="1" source="aQ_L_K3R3-eqQe358fcE-8" target="vr5rwgL9Q3Kud_MAougq-22" edge="1">
          <mxGeometry relative="1" as="geometry" />
        </mxCell>
        <mxCell id="k5OsFm6NcjSdjYwLhxJ1-3" value="sede-producto" style="swimlane;childLayout=stackLayout;horizontal=1;startSize=15;horizontalStack=0;rounded=1;fontSize=14;fontStyle=0;strokeWidth=2;resizeParent=0;resizeLast=1;shadow=0;dashed=0;align=center;fillColor=#FF9466;strokeColor=#000000;" parent="1" vertex="1">
          <mxGeometry x="-290" y="595" width="160" height="80" as="geometry" />
        </mxCell>
        <mxCell id="k5OsFm6NcjSdjYwLhxJ1-4" value="+1&#xa;+2036&#xa;stock" style="align=left;strokeColor=#000000;fillColor=#8AFF7D;spacingLeft=4;fontSize=12;verticalAlign=top;resizable=0;rotatable=0;part=1;" parent="k5OsFm6NcjSdjYwLhxJ1-3" vertex="1">
          <mxGeometry y="15" width="160" height="65" as="geometry" />
        </mxCell>
        <mxCell id="k5OsFm6NcjSdjYwLhxJ1-13" value="Servicio" style="swimlane;childLayout=stackLayout;horizontal=1;startSize=20;horizontalStack=0;rounded=1;fontSize=14;fontStyle=0;strokeWidth=2;resizeParent=0;resizeLast=1;shadow=0;dashed=0;align=center;fillColor=#45FF0D;strokeColor=#000000;" parent="1" vertex="1">
          <mxGeometry x="330" y="331" width="160" height="70" as="geometry">
            <mxRectangle x="320" y="430" width="80" height="30" as="alternateBounds" />
          </mxGeometry>
        </mxCell>
        <mxCell id="k5OsFm6NcjSdjYwLhxJ1-14" value="+Id_servicio&#xa;+Datos" style="align=left;strokeColor=#000000;fillColor=#66FF66;spacingLeft=4;fontSize=12;verticalAlign=top;resizable=0;rotatable=0;part=1;" parent="k5OsFm6NcjSdjYwLhxJ1-13" vertex="1">
          <mxGeometry y="20" width="160" height="50" as="geometry" />
        </mxCell>
        <mxCell id="k5OsFm6NcjSdjYwLhxJ1-26" style="edgeStyle=orthogonalEdgeStyle;rounded=0;orthogonalLoop=1;jettySize=auto;html=1;exitX=0.5;exitY=1;exitDx=0;exitDy=0;entryX=0.5;entryY=0;entryDx=0;entryDy=0;fillColor=#FFFFFF;strokeColor=#000000;" parent="1" source="NqYA0sLlcYKFU1yslHez-2" target="k5OsFm6NcjSdjYwLhxJ1-13" edge="1">
          <mxGeometry relative="1" as="geometry" />
        </mxCell>
        <mxCell id="k5OsFm6NcjSdjYwLhxJ1-27" value="Factura" style="swimlane;childLayout=stackLayout;horizontal=1;startSize=19;horizontalStack=0;rounded=1;fontSize=14;fontStyle=0;strokeWidth=2;resizeParent=0;resizeLast=1;shadow=0;dashed=0;align=center;fillColor=#45FF0D;strokeColor=#000000;" parent="1" vertex="1">
          <mxGeometry x="230" y="561" width="160" height="70" as="geometry" />
        </mxCell>
        <mxCell id="k5OsFm6NcjSdjYwLhxJ1-28" value="+Id_cliente&#xa;+Datos" style="align=left;strokeColor=#000000;fillColor=#66FF19;spacingLeft=4;fontSize=12;verticalAlign=top;resizable=0;rotatable=0;part=1;" parent="k5OsFm6NcjSdjYwLhxJ1-27" vertex="1">
          <mxGeometry y="19" width="160" height="51" as="geometry" />
        </mxCell>
        <mxCell id="k5OsFm6NcjSdjYwLhxJ1-33" style="edgeStyle=orthogonalEdgeStyle;rounded=0;orthogonalLoop=1;jettySize=auto;html=1;exitX=0.5;exitY=1;exitDx=0;exitDy=0;entryX=0.5;entryY=0;entryDx=0;entryDy=0;fillColor=#FFFFFF;strokeColor=#000000;" parent="1" source="k5OsFm6NcjSdjYwLhxJ1-14" target="vr5rwgL9Q3Kud_MAougq-41" edge="1">
          <mxGeometry relative="1" as="geometry" />
        </mxCell>
        <mxCell id="k5OsFm6NcjSdjYwLhxJ1-36" style="edgeStyle=orthogonalEdgeStyle;rounded=0;orthogonalLoop=1;jettySize=auto;html=1;exitX=0;exitY=1;exitDx=0;exitDy=0;entryX=1;entryY=0.25;entryDx=0;entryDy=0;fillColor=#FFFFFF;strokeColor=#000000;" parent="1" source="vr5rwgL9Q3Kud_MAougq-29" target="k5OsFm6NcjSdjYwLhxJ1-4" edge="1">
          <mxGeometry relative="1" as="geometry">
            <Array as="points">
              <mxPoint x="90" y="401" />
              <mxPoint x="90" y="637" />
            </Array>
          </mxGeometry>
        </mxCell>
        <mxCell id="wK7u8KOisi-HVqVEmxdb-1" style="edgeStyle=orthogonalEdgeStyle;rounded=0;orthogonalLoop=1;jettySize=auto;html=1;exitX=1;exitY=0.25;exitDx=0;exitDy=0;entryX=0.5;entryY=1;entryDx=0;entryDy=0;fillColor=#FFFFFF;strokeColor=#000000;" parent="1" source="k5OsFm6NcjSdjYwLhxJ1-28" target="vr5rwgL9Q3Kud_MAougq-42" edge="1">
          <mxGeometry relative="1" as="geometry" />
        </mxCell>
        <mxCell id="wK7u8KOisi-HVqVEmxdb-2" style="edgeStyle=orthogonalEdgeStyle;rounded=0;orthogonalLoop=1;jettySize=auto;html=1;exitX=0;exitY=0.25;exitDx=0;exitDy=0;entryX=0.5;entryY=1;entryDx=0;entryDy=0;fillColor=#FFFFFF;strokeColor=#000000;" parent="1" source="k5OsFm6NcjSdjYwLhxJ1-28" target="vr5rwgL9Q3Kud_MAougq-39" edge="1">
          <mxGeometry relative="1" as="geometry" />
        </mxCell>
      </root>
    </mxGraphModel>
  </diagram>
</mxfile>
